<svg version="1.1" viewBox="0 0 24 24" xmlns="http://www.w3.org/2000/svg"><g transform="matrix(.73742954 0 0 .73742954 3.4292826 -198.16211)"><circle cx="10.11" cy="287.79999" r="8.1619997" fill-rule="evenodd" style="paint-order:normal"/><path d="m10.03 275.8-1.039 3.264a8.162 8.162 0 01.8108-.0916 8.162 8.162 0 01.8157-.0105 8.162 8.162 0 01.8129.0712 8.162 8.162 0 01.8016.152 8.162 8.162 0 01.5563.1555 8.162 8.162 0 01.7643.2863 8.162 8.162 0 01.7318.3606 8.162 8.162 0 01.6919.4322 8.162 8.162 0 01.6458.4988 8.162 8.162 0 01.4224.4001l1.042-3.273z" fill-rule="evenodd"/><path d="m13.18 277.7s1.979-2.63 3.437-3.197c.9152-.3562 2.095-.469 2.946.0207 1.162.6688 2.082 2.369 2.046 3.464" fill="none" stroke="#000" stroke-width=".2298"/><path d="m20.84 280.4.07187-1.737-1.854-.2889 1.66-.6279-.7721-1.558 1.469.9309.9633-2.281-.07187 2.57 1.854-.3954-1.66 1.312 1.01 1.677-1.707-1.05z" fill-rule="evenodd" stroke="#666" stroke-linecap="round" stroke-linejoin="round" stroke-opacity=".6742" stroke-width=".02532" style="paint-order:normal"/></g></svg>
