<?xml version="1.0" encoding="UTF-8"?>
<svg version="1.1" viewBox="0 0 67.733 67.733" xmlns="http://www.w3.org/2000/svg">
 <g transform="matrix(.72823 0 0 .72823 9.164 -157.76)">
  <path d="m21.211 231.25c-2.627.11494-5.6406.19032-7.983.88212-.52763 1.7979-.18313 3.7924-.28112 5.685v55.962c.23174 1.7816 2.2992 1.1086 3.5419 1.2397 1.5083-.0554 3.0392.11682 4.5317-.0971 1.2706-.85881.57778-2.598.75631-3.9052v-24.946c6.5611-.13879 12.417 3.7266 18.983 3.6074 4.8627.19996 9.5031-1.6138 13.758-3.7903v-32.486c-5.8952 2.2119-12.464 3.0466-18.584 1.2605-4.8529-1.3716-9.5529-3.6578-14.724-3.4123z" fill-rule="evenodd" stroke="#000" stroke-linecap="round" stroke-linejoin="round" stroke-width=".44555"/>
 </g>
 <path d="m40.882 46.082q0 0.93678-0.38693 1.6903-0.36656 0.75349-0.89605 1.2626-0.52948 0.48875-1.0793 0.95714-0.52948 0.44802-0.91641 1.0386-0.36656 0.57021-0.36656 1.2219v0.95714h-1.8328v-1.1201q0-0.75349 0.36656-1.4255 0.38693-0.67204 0.91641-1.1608 0.54985-0.48875 1.0793-0.9775 0.52948-0.48875 0.89605-1.0997 0.38693-0.63131 0.38693-1.3441 0-1.0386-0.71276-1.6699-0.71276-0.65167-1.8939-0.65167-1.4866 0-2.0568 0.83495-0.57021 0.83495-0.57021 2.3419h-1.731q0-2.3419 1.1201-3.5435 1.1404-1.2219 3.3398-1.2219 1.9754 0 3.1565 1.059 1.1812 1.059 1.1812 2.8511zm-3.6453 9.0623v2.1179h-1.8328v-2.1179z" stroke-width="1.697" aria-label="?"/>
</svg>
