<svg version="1.1" viewBox="0 0 67.733 67.733" xmlns="http://www.w3.org/2000/svg"><g transform="matrix(.72823115 0 0 .72823115 9.1640219 -157.75784)"><path d="m21.211 231.25c-2.627.11494-5.6406.19032-7.983.88212-.52763 1.7979-.18313 3.7924-.28112 5.685v55.962c.23174 1.7816 2.2992 1.1086 3.5419 1.2397 1.5083-.0554 3.0392.11682 4.5317-.0971 1.2706-.85881.57778-2.598.75631-3.9052v-24.946c6.5611-.13879 12.417 3.7266 18.983 3.6074 4.8627.19996 9.5031-1.6138 13.758-3.7903v-32.486c-5.8952 2.2119-12.464 3.0466-18.584 1.2605-4.8529-1.3716-9.5529-3.6578-14.724-3.4123z" fill-rule="evenodd" stroke="#000" stroke-linecap="round" stroke-linejoin="round" stroke-width=".44555"/></g></svg>
